<mxfile host="65bd71144e">
    <diagram id="9j_kp1eZZ7Dd81V5-SA6" name="logic">
        <mxGraphModel dx="1414" dy="297" grid="1" gridSize="10" guides="1" tooltips="1" connect="1" arrows="1" fold="1" page="1" pageScale="1" pageWidth="850" pageHeight="1100" math="0" shadow="0">
            <root>
                <mxCell id="0"/>
                <mxCell id="1" parent="0"/>
                <mxCell id="_VoqCA5fEB3PeJmltins-143" style="edgeStyle=none;rounded=0;orthogonalLoop=1;jettySize=auto;html=1;exitX=0.5;exitY=0;exitDx=0;exitDy=0;entryX=1;entryY=1;entryDx=0;entryDy=0;endArrow=none;endFill=0;" parent="1" source="_VoqCA5fEB3PeJmltins-57" target="_VoqCA5fEB3PeJmltins-58" edge="1">
                    <mxGeometry relative="1" as="geometry"/>
                </mxCell>
                <mxCell id="_VoqCA5fEB3PeJmltins-144" style="edgeStyle=none;rounded=0;orthogonalLoop=1;jettySize=auto;html=1;exitX=0.5;exitY=0;exitDx=0;exitDy=0;entryX=0.78;entryY=1.036;entryDx=0;entryDy=0;entryPerimeter=0;endArrow=none;endFill=0;" parent="1" source="_VoqCA5fEB3PeJmltins-57" target="_VoqCA5fEB3PeJmltins-59" edge="1">
                    <mxGeometry relative="1" as="geometry"/>
                </mxCell>
                <mxCell id="_VoqCA5fEB3PeJmltins-145" style="edgeStyle=none;rounded=0;orthogonalLoop=1;jettySize=auto;html=1;exitX=0.5;exitY=0;exitDx=0;exitDy=0;entryX=0.5;entryY=1;entryDx=0;entryDy=0;endArrow=none;endFill=0;" parent="1" source="_VoqCA5fEB3PeJmltins-57" target="_VoqCA5fEB3PeJmltins-60" edge="1">
                    <mxGeometry relative="1" as="geometry"/>
                </mxCell>
                <mxCell id="_VoqCA5fEB3PeJmltins-146" style="edgeStyle=none;rounded=0;orthogonalLoop=1;jettySize=auto;html=1;exitX=0.5;exitY=0;exitDx=0;exitDy=0;entryX=0.436;entryY=1.044;entryDx=0;entryDy=0;entryPerimeter=0;endArrow=none;endFill=0;" parent="1" source="_VoqCA5fEB3PeJmltins-57" target="_VoqCA5fEB3PeJmltins-61" edge="1">
                    <mxGeometry relative="1" as="geometry"/>
                </mxCell>
                <mxCell id="_VoqCA5fEB3PeJmltins-57" value="customers" style="rounded=0;whiteSpace=wrap;html=1;" parent="1" vertex="1">
                    <mxGeometry x="50" y="280" width="120" height="50" as="geometry"/>
                </mxCell>
                <mxCell id="_VoqCA5fEB3PeJmltins-58" value="customer_id" style="ellipse;whiteSpace=wrap;html=1;strokeColor=#000000;" parent="1" vertex="1">
                    <mxGeometry x="-50" y="170" width="80" height="30" as="geometry"/>
                </mxCell>
                <mxCell id="_VoqCA5fEB3PeJmltins-59" value="customer_name" style="ellipse;whiteSpace=wrap;html=1;" parent="1" vertex="1">
                    <mxGeometry x="20" y="110" width="100" height="50" as="geometry"/>
                </mxCell>
                <mxCell id="_VoqCA5fEB3PeJmltins-60" value="customer_address" style="ellipse;whiteSpace=wrap;html=1;" parent="1" vertex="1">
                    <mxGeometry x="130" y="100" width="110" height="40" as="geometry"/>
                </mxCell>
                <mxCell id="_VoqCA5fEB3PeJmltins-61" value="customer_CI" style="ellipse;whiteSpace=wrap;html=1;" parent="1" vertex="1">
                    <mxGeometry x="260" y="100" width="100" height="50" as="geometry"/>
                </mxCell>
                <mxCell id="_VoqCA5fEB3PeJmltins-63" style="edgeStyle=orthogonalEdgeStyle;rounded=0;orthogonalLoop=1;jettySize=auto;html=1;exitX=0.5;exitY=1;exitDx=0;exitDy=0;" parent="1" source="_VoqCA5fEB3PeJmltins-58" target="_VoqCA5fEB3PeJmltins-58" edge="1">
                    <mxGeometry relative="1" as="geometry"/>
                </mxCell>
                <mxCell id="_VoqCA5fEB3PeJmltins-97" style="edgeStyle=none;rounded=0;orthogonalLoop=1;jettySize=auto;html=1;exitX=1;exitY=1;exitDx=0;exitDy=0;" parent="1" edge="1">
                    <mxGeometry relative="1" as="geometry">
                        <mxPoint x="306.81980515339455" y="882.6776695296637" as="sourcePoint"/>
                        <mxPoint x="307.02575207893733" y="882.5625092045784" as="targetPoint"/>
                    </mxGeometry>
                </mxCell>
                <mxCell id="_VoqCA5fEB3PeJmltins-101" value="bill slips" style="whiteSpace=wrap;html=1;align=center;strokeColor=#000000;" parent="1" vertex="1">
                    <mxGeometry x="50" y="630" width="100" height="40" as="geometry"/>
                </mxCell>
                <mxCell id="_VoqCA5fEB3PeJmltins-133" style="edgeStyle=none;rounded=0;orthogonalLoop=1;jettySize=auto;html=1;exitX=0;exitY=1;exitDx=0;exitDy=0;endArrow=none;endFill=0;" parent="1" edge="1">
                    <mxGeometry relative="1" as="geometry">
                        <mxPoint x="728.1801948466054" y="221.21320343559637" as="sourcePoint"/>
                        <mxPoint x="728.4357633272612" y="221.38222484282323" as="targetPoint"/>
                    </mxGeometry>
                </mxCell>
                <mxCell id="mk6C-UQYJAwDmwogz-CA-1" value="rooms" style="rounded=0;whiteSpace=wrap;html=1;" parent="1" vertex="1">
                    <mxGeometry x="410" y="260" width="120" height="60" as="geometry"/>
                </mxCell>
                <mxCell id="mk6C-UQYJAwDmwogz-CA-3" value="equiequipment and services" style="rounded=0;whiteSpace=wrap;html=1;" parent="1" vertex="1">
                    <mxGeometry x="700" y="570" width="120" height="60" as="geometry"/>
                </mxCell>
                <mxCell id="mk6C-UQYJAwDmwogz-CA-42" style="edgeStyle=orthogonalEdgeStyle;rounded=0;orthogonalLoop=1;jettySize=auto;html=1;exitX=0.5;exitY=0;exitDx=0;exitDy=0;entryX=0.587;entryY=0.983;entryDx=0;entryDy=0;entryPerimeter=0;endArrow=none;endFill=0;" parent="1" source="mk6C-UQYJAwDmwogz-CA-4" target="mk6C-UQYJAwDmwogz-CA-6" edge="1">
                    <mxGeometry relative="1" as="geometry"/>
                </mxCell>
                <mxCell id="mk6C-UQYJAwDmwogz-CA-4" value="actactivity" style="rounded=0;whiteSpace=wrap;html=1;" parent="1" vertex="1">
                    <mxGeometry x="840" y="260" width="120" height="60" as="geometry"/>
                </mxCell>
                <mxCell id="mk6C-UQYJAwDmwogz-CA-5" value="&amp;nbsp;book room" style="ellipse;whiteSpace=wrap;html=1;" parent="1" vertex="1">
                    <mxGeometry x="700" y="90" width="120" height="80" as="geometry"/>
                </mxCell>
                <mxCell id="mk6C-UQYJAwDmwogz-CA-6" value="not book room" style="ellipse;whiteSpace=wrap;html=1;" parent="1" vertex="1">
                    <mxGeometry x="830" y="60" width="120" height="80" as="geometry"/>
                </mxCell>
                <mxCell id="mk6C-UQYJAwDmwogz-CA-16" value="junk money" style="ellipse;whiteSpace=wrap;html=1;" parent="1" vertex="1">
                    <mxGeometry x="880" y="620" width="120" height="80" as="geometry"/>
                </mxCell>
                <mxCell id="mk6C-UQYJAwDmwogz-CA-17" value="internet money" style="ellipse;whiteSpace=wrap;html=1;" parent="1" vertex="1">
                    <mxGeometry x="890" y="700" width="120" height="80" as="geometry"/>
                </mxCell>
                <mxCell id="mk6C-UQYJAwDmwogz-CA-18" value="water money" style="ellipse;whiteSpace=wrap;html=1;" parent="1" vertex="1">
                    <mxGeometry x="800" y="800" width="120" height="80" as="geometry"/>
                </mxCell>
                <mxCell id="mk6C-UQYJAwDmwogz-CA-19" value="rent&amp;nbsp;" style="ellipse;whiteSpace=wrap;html=1;" parent="1" vertex="1">
                    <mxGeometry x="630" y="690" width="120" height="80" as="geometry"/>
                </mxCell>
                <mxCell id="mk6C-UQYJAwDmwogz-CA-20" value="price" style="ellipse;whiteSpace=wrap;html=1;" parent="1" vertex="1">
                    <mxGeometry x="390" y="140" width="100" height="60" as="geometry"/>
                </mxCell>
                <mxCell id="mk6C-UQYJAwDmwogz-CA-21" value="stasus" style="ellipse;whiteSpace=wrap;html=1;" parent="1" vertex="1">
                    <mxGeometry x="520" y="110" width="120" height="80" as="geometry"/>
                </mxCell>
                <mxCell id="mk6C-UQYJAwDmwogz-CA-22" value="current number of people" style="ellipse;whiteSpace=wrap;html=1;" parent="1" vertex="1">
                    <mxGeometry x="380" y="370" width="120" height="80" as="geometry"/>
                </mxCell>
                <mxCell id="mk6C-UQYJAwDmwogz-CA-23" value="bill_id" style="ellipse;whiteSpace=wrap;html=1;" parent="1" vertex="1">
                    <mxGeometry x="-130" y="630" width="120" height="80" as="geometry"/>
                </mxCell>
                <mxCell id="mk6C-UQYJAwDmwogz-CA-24" value="bill_name" style="ellipse;whiteSpace=wrap;html=1;" parent="1" vertex="1">
                    <mxGeometry x="-100" y="720" width="120" height="80" as="geometry"/>
                </mxCell>
                <mxCell id="mk6C-UQYJAwDmwogz-CA-25" value="bill_datetime" style="ellipse;whiteSpace=wrap;html=1;" parent="1" vertex="1">
                    <mxGeometry x="40" y="760" width="120" height="80" as="geometry"/>
                </mxCell>
                <mxCell id="mk6C-UQYJAwDmwogz-CA-26" value="status" style="ellipse;whiteSpace=wrap;html=1;" parent="1" vertex="1">
                    <mxGeometry x="180" y="790" width="120" height="80" as="geometry"/>
                </mxCell>
                <mxCell id="mk6C-UQYJAwDmwogz-CA-38" value="" style="endArrow=none;html=1;entryX=0.223;entryY=0.958;entryDx=0;entryDy=0;entryPerimeter=0;exitX=0.75;exitY=0;exitDx=0;exitDy=0;" parent="1" source="mk6C-UQYJAwDmwogz-CA-1" target="mk6C-UQYJAwDmwogz-CA-21" edge="1">
                    <mxGeometry width="50" height="50" relative="1" as="geometry">
                        <mxPoint x="440" y="260" as="sourcePoint"/>
                        <mxPoint x="490" y="210" as="targetPoint"/>
                    </mxGeometry>
                </mxCell>
                <mxCell id="mk6C-UQYJAwDmwogz-CA-43" value="" style="endArrow=none;html=1;entryX=0.767;entryY=0.933;entryDx=0;entryDy=0;entryPerimeter=0;exitX=0.5;exitY=0;exitDx=0;exitDy=0;" parent="1" source="mk6C-UQYJAwDmwogz-CA-4" target="mk6C-UQYJAwDmwogz-CA-5" edge="1">
                    <mxGeometry width="50" height="50" relative="1" as="geometry">
                        <mxPoint x="840" y="260" as="sourcePoint"/>
                        <mxPoint x="890" y="210" as="targetPoint"/>
                    </mxGeometry>
                </mxCell>
                <mxCell id="mk6C-UQYJAwDmwogz-CA-51" value="" style="endArrow=none;html=1;entryX=1;entryY=1;entryDx=0;entryDy=0;" parent="1" target="mk6C-UQYJAwDmwogz-CA-3" edge="1">
                    <mxGeometry width="50" height="50" relative="1" as="geometry">
                        <mxPoint x="880" y="646" as="sourcePoint"/>
                        <mxPoint x="820" y="600" as="targetPoint"/>
                    </mxGeometry>
                </mxCell>
                <mxCell id="mk6C-UQYJAwDmwogz-CA-52" value="" style="endArrow=none;html=1;exitX=0;exitY=0;exitDx=0;exitDy=0;" parent="1" source="mk6C-UQYJAwDmwogz-CA-17" edge="1">
                    <mxGeometry width="50" height="50" relative="1" as="geometry">
                        <mxPoint x="760" y="680" as="sourcePoint"/>
                        <mxPoint x="768" y="630" as="targetPoint"/>
                    </mxGeometry>
                </mxCell>
                <mxCell id="mk6C-UQYJAwDmwogz-CA-53" value="" style="endArrow=none;html=1;" parent="1" source="mk6C-UQYJAwDmwogz-CA-18" edge="1">
                    <mxGeometry width="50" height="50" relative="1" as="geometry">
                        <mxPoint x="710" y="680" as="sourcePoint"/>
                        <mxPoint x="760" y="630" as="targetPoint"/>
                    </mxGeometry>
                </mxCell>
                <mxCell id="mk6C-UQYJAwDmwogz-CA-54" value="" style="endArrow=none;html=1;" parent="1" source="mk6C-UQYJAwDmwogz-CA-19" edge="1">
                    <mxGeometry width="50" height="50" relative="1" as="geometry">
                        <mxPoint x="570" y="720" as="sourcePoint"/>
                        <mxPoint x="760" y="630" as="targetPoint"/>
                    </mxGeometry>
                </mxCell>
                <mxCell id="mk6C-UQYJAwDmwogz-CA-60" value="" style="endArrow=none;html=1;exitX=1;exitY=0.378;exitDx=0;exitDy=0;exitPerimeter=0;entryX=0;entryY=0.5;entryDx=0;entryDy=0;" parent="1" source="mk6C-UQYJAwDmwogz-CA-23" target="_VoqCA5fEB3PeJmltins-101" edge="1">
                    <mxGeometry width="50" height="50" relative="1" as="geometry">
                        <mxPoint x="60" y="660" as="sourcePoint"/>
                        <mxPoint x="110" y="610" as="targetPoint"/>
                    </mxGeometry>
                </mxCell>
                <mxCell id="mk6C-UQYJAwDmwogz-CA-61" value="" style="endArrow=none;html=1;exitX=0.823;exitY=0.063;exitDx=0;exitDy=0;exitPerimeter=0;entryX=0.25;entryY=1;entryDx=0;entryDy=0;" parent="1" source="mk6C-UQYJAwDmwogz-CA-24" target="_VoqCA5fEB3PeJmltins-101" edge="1">
                    <mxGeometry width="50" height="50" relative="1" as="geometry">
                        <mxPoint x="70" y="670" as="sourcePoint"/>
                        <mxPoint x="120" y="620" as="targetPoint"/>
                    </mxGeometry>
                </mxCell>
                <mxCell id="mk6C-UQYJAwDmwogz-CA-62" value="" style="endArrow=none;html=1;exitX=0.43;exitY=-0.037;exitDx=0;exitDy=0;exitPerimeter=0;entryX=0.44;entryY=1.015;entryDx=0;entryDy=0;entryPerimeter=0;" parent="1" source="mk6C-UQYJAwDmwogz-CA-25" target="_VoqCA5fEB3PeJmltins-101" edge="1">
                    <mxGeometry width="50" height="50" relative="1" as="geometry">
                        <mxPoint x="80" y="680" as="sourcePoint"/>
                        <mxPoint x="130" y="630" as="targetPoint"/>
                    </mxGeometry>
                </mxCell>
                <mxCell id="mk6C-UQYJAwDmwogz-CA-63" value="" style="endArrow=none;html=1;" parent="1" source="mk6C-UQYJAwDmwogz-CA-26" edge="1">
                    <mxGeometry width="50" height="50" relative="1" as="geometry">
                        <mxPoint x="90" y="690" as="sourcePoint"/>
                        <mxPoint x="111" y="672" as="targetPoint"/>
                    </mxGeometry>
                </mxCell>
                <mxCell id="mk6C-UQYJAwDmwogz-CA-70" value="" style="endArrow=none;html=1;entryX=0.5;entryY=1;entryDx=0;entryDy=0;exitX=0.5;exitY=0;exitDx=0;exitDy=0;" parent="1" source="mk6C-UQYJAwDmwogz-CA-1" target="mk6C-UQYJAwDmwogz-CA-20" edge="1">
                    <mxGeometry width="50" height="50" relative="1" as="geometry">
                        <mxPoint x="600" y="360" as="sourcePoint"/>
                        <mxPoint x="650" y="310" as="targetPoint"/>
                    </mxGeometry>
                </mxCell>
                <mxCell id="mk6C-UQYJAwDmwogz-CA-71" value="" style="endArrow=none;html=1;entryX=0.5;entryY=1;entryDx=0;entryDy=0;exitX=0.5;exitY=0;exitDx=0;exitDy=0;" parent="1" source="mk6C-UQYJAwDmwogz-CA-22" target="mk6C-UQYJAwDmwogz-CA-1" edge="1">
                    <mxGeometry width="50" height="50" relative="1" as="geometry">
                        <mxPoint x="510" y="360" as="sourcePoint"/>
                        <mxPoint x="560" y="310" as="targetPoint"/>
                    </mxGeometry>
                </mxCell>
            </root>
        </mxGraphModel>
    </diagram>
</mxfile>